<svg xmlns="http://www.w3.org/2000/svg" viewBox="0 0 365.26 342.98"><defs><style>.cls-1{fill:#fff;}</style></defs><g id="Capa_2" data-name="Capa 2"><g id="Layer_1" data-name="Layer 1"><path class="cls-1" d="M353.76,228.28a11.5,11.5,0,0,0-11.5,11.5v78.85a1.66,1.66,0,0,1-1.8,1.35H24.81A1.66,1.66,0,0,1,23,318.63V239.78a11.5,11.5,0,0,0-23,0v78.85A24.61,24.61,0,0,0,24.81,343H340.46a24.61,24.61,0,0,0,24.8-24.35V239.78A11.5,11.5,0,0,0,353.76,228.28Z"/><path class="cls-1" d="M174.5,253.64a11.49,11.49,0,0,0,16.26,0l98.43-98.42A11.5,11.5,0,0,0,272.92,139l-78.79,78.79V11.5a11.5,11.5,0,0,0-23,0V217.75L92.34,139a11.5,11.5,0,0,0-16.27,16.26Z"/></g></g></svg>