<svg xmlns="http://www.w3.org/2000/svg" viewBox="0 0 44.08 44.08"><defs><style>.cls-1{fill:#b55c9e;}</style></defs><title>redes-instagram-o</title><g id="Capa_2" data-name="Capa 2"><g id="Capa_1-2" data-name="Capa 1"><circle class="cls-1" cx="22.04" cy="22.04" r="4.64"/><path class="cls-1" d="M26.51,11.22H17.57a6,6,0,0,0-6,6v9.7a6,6,0,0,0,6,6h8.94a6,6,0,0,0,6-6v-9.7A6,6,0,0,0,26.51,11.22ZM22,28.09A6,6,0,1,1,28.09,22,6.06,6.06,0,0,1,22,28.09Zm6.42-11.18a1.39,1.39,0,1,1,1.39-1.38A1.38,1.38,0,0,1,28.46,16.91Z"/><path class="cls-1" d="M22,0a22,22,0,1,0,22,22A22.07,22.07,0,0,0,22,0ZM33.89,26.89a7.39,7.39,0,0,1-7.38,7.37H17.57a7.39,7.39,0,0,1-7.38-7.37v-9.7a7.39,7.39,0,0,1,7.38-7.37h8.94a7.39,7.39,0,0,1,7.38,7.37Z"/></g></g></svg>