<svg xmlns="http://www.w3.org/2000/svg" viewBox="0 0 19.92 19.92"><defs><style>.cls-1{fill:#9ac9e3;}</style></defs><title>Recurso 12</title><g id="Capa_2" data-name="Capa 2"><g id="Capa_1-2" data-name="Capa 1"><path class="cls-1" d="M10,0a10,10,0,1,0,10,10A10,10,0,0,0,10,0Zm5.09,7.44a8,8,0,0,1-4,6.86A7.67,7.67,0,0,1,3.65,14c2.77.12,3.8-1.09,3.8-1.09A2.39,2.39,0,0,1,5,11.05a2.42,2.42,0,0,0,1.12,0A2.72,2.72,0,0,1,4.07,8.44c.33.33,1.16.28,1.16.28A2.55,2.55,0,0,1,4.49,5.3,7.54,7.54,0,0,0,9.86,8,2.62,2.62,0,0,1,11.3,5.07a2.41,2.41,0,0,1,3,.62L16,5c-.05.54-1.07,1.38-1.07,1.38a4.73,4.73,0,0,0,1.37-.35A4.18,4.18,0,0,1,15.05,7.44Z"/></g></g></svg>