<svg xmlns="http://www.w3.org/2000/svg" xmlns:xlink="http://www.w3.org/1999/xlink" viewBox="0 0 19.92 19.92"><defs><style>.cls-1{fill:url(#linear-gradient);}.cls-2{fill:url(#linear-gradient-2);}.cls-3{fill:url(#linear-gradient-3);}.cls-4{fill:url(#linear-gradient-4);}.cls-5{fill:url(#linear-gradient-5);}.cls-6{fill:url(#linear-gradient-6);}</style><linearGradient id="linear-gradient" x1="7.65" y1="13.14" x2="9.54" y2="13.14" gradientUnits="userSpaceOnUse"><stop offset="0" stop-color="#c33a35"/><stop offset="1" stop-color="#b32a29"/></linearGradient><linearGradient id="linear-gradient-2" x1="10.08" y1="12.53" x2="12" y2="12.53" xlink:href="#linear-gradient"/><linearGradient id="linear-gradient-3" x1="5.51" y1="12.51" x2="7.76" y2="12.51" xlink:href="#linear-gradient"/><linearGradient id="linear-gradient-4" x1="9.65" y1="6.63" x2="10.23" y2="6.63" xlink:href="#linear-gradient"/><linearGradient id="linear-gradient-5" x1="12.43" y1="13.11" x2="14.39" y2="13.11" xlink:href="#linear-gradient"/><linearGradient id="linear-gradient-6" x1="0" y1="9.96" x2="19.92" y2="9.96" xlink:href="#linear-gradient"/></defs><title>Recurso 14</title><g id="Capa_2" data-name="Capa 2"><g id="Capa_1-2" data-name="Capa 1"><path class="cls-1" d="M8.86,14c-.14.2-.26.32-.39.32s-.13,0-.14-.14V11.33H7.65v2.82a1.27,1.27,0,0,0,.08.52.42.42,0,0,0,.42.28,1,1,0,0,0,.71-.44v.39h.68V11.33H8.86Z"/><path class="cls-2" d="M11.4,11.27a.9.9,0,0,0-.68.41V10.12h-.64V14.9h.64v-.36a.89.89,0,0,0,.68.4.52.52,0,0,0,.53-.4,2.86,2.86,0,0,0,.07-.71V12.4a2.21,2.21,0,0,0-.09-.71A.51.51,0,0,0,11.4,11.27Zm-.08,2.59c0,.36-.08.5-.27.5a.48.48,0,0,1-.33-.17V12a.51.51,0,0,1,.33-.16c.19,0,.27.1.27.46Z"/><polygon class="cls-3" points="7.76 10.12 5.51 10.12 5.51 10.8 6.26 10.8 6.26 14.9 6.97 14.9 6.97 10.8 7.76 10.8 7.76 10.12"/><path class="cls-4" d="M9.94,7.87c.21,0,.32-.17.29-.53V5.91c0-.35-.08-.52-.29-.52s-.32.17-.28.52V7.34C9.62,7.7,9.73,7.87,9.94,7.87Z"/><path class="cls-5" d="M14.39,13.22v-.73a1.37,1.37,0,0,0-.21-.84,1,1,0,0,0-1.53,0,1.43,1.43,0,0,0-.22.86v1.25a1.38,1.38,0,0,0,.22.82.94.94,0,0,0,.78.36.9.9,0,0,0,.79-.38,1.32,1.32,0,0,0,.15-.39c0-.06,0-.21,0-.42v-.1h-.68v.45c0,.17-.13.26-.29.26s-.32-.17-.31-.5v-.64Zm-1.28-.93c0-.33.09-.42.3-.42s.3.1.3.43v.39h-.6Z"/><path class="cls-6" d="M10,0a10,10,0,1,0,10,10A10,10,0,0,0,10,0ZM11.4,4.81h.68V7.73c0,.1.06.14.14.14s.25-.11.39-.32V4.81h.68v3.6h-.68V8a1,1,0,0,1-.71.44.42.42,0,0,1-.42-.27,1.33,1.33,0,0,1-.08-.53Zm-1.46,0a.89.89,0,0,1,.75.35A1.41,1.41,0,0,1,10.9,6V7.27a1.34,1.34,0,0,1-.2.83,1,1,0,0,1-.76.37,1,1,0,0,1-.76-.37A1.34,1.34,0,0,1,9,7.27V6a1.41,1.41,0,0,1,.21-.86A.85.85,0,0,1,9.94,4.78ZM7.37,3.6l.5,1.88.5-1.88h.75L8.23,6.45v2H7.52v-2s-.74-2.4-.9-2.85ZM15.28,13a17.07,17.07,0,0,1-.1,1.72,2.31,2.31,0,0,1-.43,1,1.56,1.56,0,0,1-1.06.45c-1.49.11-3.73.11-3.73.11s-2.77,0-3.62-.11a1.81,1.81,0,0,1-1.18-.45,2.37,2.37,0,0,1-.42-1A15.54,15.54,0,0,1,4.63,13v-.8a15.54,15.54,0,0,1,.11-1.72,2.37,2.37,0,0,1,.42-1.05A1.58,1.58,0,0,1,6.23,9C7.72,8.86,10,8.86,10,8.86h0s2.24,0,3.73.11a1.56,1.56,0,0,1,1.06.45,2.31,2.31,0,0,1,.43,1.05,17.07,17.07,0,0,1,.1,1.72Z"/></g></g></svg>