<svg id="Layer_1" data-name="Layer 1" xmlns="http://www.w3.org/2000/svg" viewBox="0 0 28.3 57.73"><defs><style>.cls-1{fill:none;stroke:#95d600;stroke-linejoin:round;stroke-width:2.5px}</style></defs>bmi<path class="cls-1" d="M24.77 1.91c2.43 0 3.58 1.61 3.54 4a10.94 10.94 0 0 1-2.21 5 7.91 7.91 0 0 0 4.53 1.37c2.76 0 2.76.55 2.76 2.76s2 13 3.54 14.56.77 4-1 4-2.43-1.65-2.43-4.07-3.75-5.07-3.75-11.25a33.11 33.11 0 0 0 .44 10 21.64 21.64 0 0 1-.1 10.15c-.52 2.42.77 6.73-1.21 12.8-.32 2.91 1.4 3.45 2.32 4.41 0 0 .22 1.88-2.1 1.43a3.93 3.93 0 0 1-3-2.32s-1-16-.78-17.32a.5.5 0 1 0-1 0c.16 1.33-.78 17.32-.78 17.32a3.93 3.93 0 0 1-3 2.32c-2.32.44-2.1-1.43-2.1-1.43.88-.88 2.32-.77 2.32-4.41-2-6.07-.59-10.4-1.21-12.8a22.79 22.79 0 0 1-.1-10.15 33.11 33.11 0 0 0 .44-10c0 6.18-3.75 8.94-3.75 11.25s-.66 4.07-2.43 4.07-2.54-2.42-1-4 3.61-12.36 3.61-14.6 0-2.76 2.76-2.76a6.63 6.63 0 0 0 4.3-1.43 10.46 10.46 0 0 1-2-5c0-2.36 1-4 3.42-4" transform="translate(-10.7 -.66)"/></svg>
