<svg id="Layer_1" xmlns="http://www.w3.org/2000/svg" viewBox="0 0 50 50"><style>.st0{fill:#c60071}</style><path id="Vote" class="st0" d="M25 39.8c-.8 0-1.6-.3-2.2-.8-4.5-4.1-12.3-11.3-13.7-14.1-1-2.2-1.2-4.7-.4-6.9 1-3 3.5-5.3 6.5-6 .7-.1 1.3-.2 2-.2 3.2 0 6.1 1.7 7.7 4.4 1.6-2.7 4.6-4.4 7.7-4.4.7 0 1.3.1 2 .2 3.1.7 5.6 3 6.5 6 .8 2.3.6 4.8-.4 6.9C39.3 27.8 31.5 35 27 39c-.4.5-1.2.8-2 .8zm-7.7-25.4c-.5 0-1 .1-1.4.2-2.2.5-3.9 2.1-4.6 4.2-.6 1.6-.5 3.4.3 4.9.8 1.7 5.8 6.8 13 13.3.2.2.5.3.8.1l.1-.1c7.2-6.5 12.2-11.6 13-13.3.7-1.5.8-3.3.3-4.9-.7-2.1-2.4-3.7-4.6-4.2-3.5-.7-6.9 1.5-7.7 5-.2.8-.9 1.3-1.8 1.2-.6-.1-1.1-.6-1.2-1.2-.6-3-3.2-5.1-6.2-5.2z"/></svg>