<svg xmlns="http://www.w3.org/2000/svg" viewBox="0 0 163.16 168.08"><defs><style>.cls-1{fill:#71a1c8;}</style></defs><title>icon-operadora</title><g id="Capa_2" data-name="Capa 2"><g id="Capa_1-2" data-name="Capa 1"><path class="cls-1" d="M148.43,67.22h-1A69,69,0,0,0,9.44,69a85.32,85.32,0,0,0,.93,12.18,19.21,19.21,0,0,0,8.85,36.27,19.8,19.8,0,0,0,2.05-.12c11.51,25.2,31.84,50.71,57.21,50.71,16.78,0,33.38-11.42,47.09-32.27h5.93c13.54,0,19.31-11.71,20.47-17.9l.09-.46V117a14.74,14.74,0,0,0,11.1-14.26V82A14.75,14.75,0,0,0,148.43,67.22ZM137.52,69c0,.57,0,1.15,0,1.73-.29.24-.57.49-.83.75-18.56-1.33-33-12.3-43-32.65A117,117,0,0,1,84.39,10.3,59.11,59.11,0,0,1,137.52,69ZM73.24,10.25C71.72,28.63,62.17,44.31,44.75,56.91A109.87,109.87,0,0,1,19.47,70.33c0-.43,0-.87,0-1.29A59.1,59.1,0,0,1,73.24,10.25Zm5.24,147.83c-18.94,0-36.3-20-47.12-42.72-.2-.41-5.46-10.73-5.46-10.73a9.12,9.12,0,0,1-6.68,2.86A9.22,9.22,0,0,1,19,89.05l3.31.62c-.11-.52-1.23-5-1.32-5.55-.23-1.18-.42-2.34-.59-3.49a118.66,118.66,0,0,0,30-15.43c13.87-10,23.55-22.07,28.73-35.74A116.22,116.22,0,0,0,84.6,43c10.88,22.37,27.29,35.4,47.77,38.1,0,.28,0,.55,0,.83V98.32A135.93,135.93,0,0,1,120,125.81H105.88A11.82,11.82,0,0,0,95.18,119a12.23,12.23,0,0,0-3,.39,16.66,16.66,0,0,0,3.13-9.74h-7a9.85,9.85,0,1,1-19.7,0h-7a16.82,16.82,0,0,0,23.11,15.63,11.82,11.82,0,1,0,21.14,10.54h7.41C103.38,148.93,91.25,158.08,78.48,158.08Zm53-32.27c2.1-3.91,4-8,5.76-12.08a14.59,14.59,0,0,0,4.77,2.85C141.52,118.6,139.16,125.81,131.5,125.81Z"/><circle class="cls-1" cx="58.21" cy="84.12" r="9.73" transform="translate(-42.43 65.8) rotate(-45)"/><circle class="cls-1" cx="98.21" cy="84.12" r="9.73" transform="translate(-16.7 24.81) rotate(-13.28)"/></g></g></svg>