<svg xmlns="http://www.w3.org/2000/svg" viewBox="0 0 17.88 17.27"><defs><style>.cls-1{fill:#211915;}</style></defs><title>Recurso 22</title><g id="Capa_2" data-name="Capa 2"><g id="Capa_1-2" data-name="Capa 1"><path class="cls-1" d="M16.45,0h-15A1.43,1.43,0,0,0,0,1.43v.41A1.43,1.43,0,0,0,1.43,3.27h15a1.43,1.43,0,0,0,1.43-1.43V1.43A1.43,1.43,0,0,0,16.45,0Zm.43,1.84a.43.43,0,0,1-.43.43h-15A.43.43,0,0,1,1,1.84V1.43A.43.43,0,0,1,1.43,1h15a.43.43,0,0,1,.43.43Z"/><path class="cls-1" d="M16.45,7h-15A1.43,1.43,0,0,0,0,8.43v.41a1.43,1.43,0,0,0,1.43,1.43h15a1.43,1.43,0,0,0,1.43-1.43V8.43A1.43,1.43,0,0,0,16.45,7Zm.43,1.84a.43.43,0,0,1-.43.43h-15A.43.43,0,0,1,1,8.84V8.43A.43.43,0,0,1,1.43,8h15a.43.43,0,0,1,.43.43Z"/><path class="cls-1" d="M16.45,14h-15A1.43,1.43,0,0,0,0,15.43v.41a1.43,1.43,0,0,0,1.43,1.43h15a1.43,1.43,0,0,0,1.43-1.43v-.41A1.43,1.43,0,0,0,16.45,14Zm.43,1.84a.43.43,0,0,1-.43.43h-15A.43.43,0,0,1,1,15.84v-.41A.43.43,0,0,1,1.43,15h15a.43.43,0,0,1,.43.43Z"/></g></g></svg>