<?xml version="1.0" encoding="utf-8"?>
<!-- Generator: Adobe Illustrator 23.1.1, SVG Export Plug-In . SVG Version: 6.00 Build 0)  -->
<svg version="1.1" id="Capa_1" xmlns="http://www.w3.org/2000/svg" xmlns:xlink="http://www.w3.org/1999/xlink" x="0px" y="0px"
	 viewBox="0 0 53.7 53.7" style="enable-background:new 0 0 53.7 53.7;" xml:space="preserve">
<style type="text/css">
	.st0{fill:#FFFFFF;}
</style>
<title>telefono-o</title>
<g>
	<g id="Capa_1-2">
		<path class="st0" d="M20.4,14.4c1-1,1-2.6,0-3.6l-10-10c-1-1-2.6-1-3.6,0L3.1,4.3L16.7,18L20.4,14.4z"/>
		<path class="st0" d="M52.9,43.3l-10-10c-1-1-2.6-1-3.6,0c0,0,0,0,0,0l-3.6,3.6l13.6,13.6l3.6-3.6C53.9,45.9,53.8,44.3,52.9,43.3z"
			/>
		<path class="st0" d="M27.5,37.8L21.7,32l-5.8-5.8c-1.7-1.6-2.1-4.2-1-6.3L1.3,6.2c-6.3,16,12.9,33.2,12.9,33.2
			s17.2,19.2,33.2,12.9L33.8,38.8C31.7,39.9,29.1,39.5,27.5,37.8z"/>
	</g>
</g>
</svg>
