<?xml version="1.0" encoding="UTF-8" standalone="no"?>
<svg width="17px" height="14px" viewBox="0 0 17 14" version="1.1" xmlns="http://www.w3.org/2000/svg" xmlns:xlink="http://www.w3.org/1999/xlink">
    <!-- Generator: Sketch 42 (36781) - http://www.bohemiancoding.com/sketch -->
    <desc>Created with Sketch.</desc>
    <defs></defs>
    <g id="Page-1" stroke="none" stroke-width="1" fill="none" fill-rule="evenodd">
        <g id="nbx-nutri-copy-3" transform="translate(-113.000000, -266.000000)" fill="#1A91EB">
            <g id="Diagnostico-y-tratamiento" transform="translate(88.000000, 168.000000)">
                <g id="seguimiento" transform="translate(0.000000, 33.000000)">
                    <g id="icons" transform="translate(22.000000, 65.000000)">
                        <path d="M13.9202107,5.96771622 C13.9202107,5.96771622 13.3028557,9.54658606 12.6452383,10.3294638 C11.9939215,11.1009972 10.8407344,11.1990982 10.0684521,10.5486696 L10.0684521,10.5486696 C9.29588646,9.88361451 9.20214284,8.72079478 9.85819346,7.94056822 C10.5068636,7.15321686 13.9202107,5.96771622 13.9202107,5.96771622 L13.9202107,5.96771622 Z M17.8167053,13.8278091 L5.18329474,13.8278091 C4.98867774,13.8267908 4.80542808,13.7359914 4.68672655,13.5817618 C2.06942176,10.0727884 2.5452511,5.14981277 5.78614611,2.20706261 C9.02704113,-0.735687538 13.9729589,-0.735687538 17.2138539,2.20706261 C20.4547489,5.14981277 20.9305782,10.0727884 18.3132734,13.5817618 C18.1945719,13.7359914 18.0113223,13.8267908 17.8167053,13.8278091 L17.8167053,13.8278091 L17.8167053,13.8278091 Z M5.50539303,12.5617839 L17.494607,12.5617839 C18.3093172,11.3360358 18.7406978,9.89550486 18.7337907,8.42371565 C18.766555,5.83773288 17.4172251,3.43070669 15.1940805,2.10934058 C12.9709359,0.78797446 10.2117251,0.753015362 7.95581619,2.01763204 C5.69990727,3.28224871 4.29002644,5.6543158 4.25726217,8.24029857 L4.25726217,8.44161 C4.25466388,9.90851147 4.6891923,11.3429225 5.50539303,12.5617839 L5.50539303,12.5617839 Z M6.51195017,8.59371196 C6.16358231,8.59371196 5.88117436,8.31130402 5.88117436,7.96293616 L5.88117436,7.96293616 C5.8416433,4.85974448 8.32523092,2.31206431 11.4284226,2.2725332 C14.5316143,2.2330021 17.0792945,4.71658968 17.1188256,7.81978136 L17.1188256,7.94504181 C17.091245,8.27167258 16.8180798,8.52274382 16.4902866,8.52274382 C16.1624935,8.52274382 15.8893283,8.27167258 15.8617476,7.94504181 L15.8617476,7.94504181 C15.814419,5.58810821 13.9029202,3.69528226 11.5456356,3.67109258 C9.18835097,3.6469029 7.23841166,5.50010403 7.14272598,7.85557006 L7.14272598,7.96293616 C7.14272598,8.1302283 7.07626943,8.2906686 6.95797602,8.40896201 C6.83968261,8.52725542 6.67924231,8.59371196 6.51195017,8.59371196 L6.51195017,8.59371196 L6.51195017,8.59371196 Z" id="Dashboard"></path>
                    </g>
                </g>
            </g>
        </g>
    </g>
</svg>
